<svg width="297" height="297" viewBox="0 0 297 297" fill="none" xmlns="http://www.w3.org/2000/svg">
<g clip-path="url(#clip0_1047_126)">
<path d="M148.5 297C230.514 297 297 230.514 297 148.5C297 66.4857 230.514 0 148.5 0C66.4857 0 0 66.4857 0 148.5C0 230.514 66.4857 297 148.5 297Z" fill="#13AA52"/>
<path d="M188.194 130.355C178.815 88.9579 156.647 75.3463 154.26 70.1459C151.649 66.477 149.004 59.9511 149.004 59.9511C148.961 59.8409 148.891 59.6465 148.81 59.458C148.54 63.127 148.401 64.5424 144.932 68.2433C139.561 72.4431 112.001 95.5679 109.759 142.601C107.668 186.466 141.446 212.604 146.014 215.937L146.533 216.305V216.273C146.562 216.494 147.983 226.715 148.981 237.545H152.56C153.4 229.889 154.659 222.286 156.331 214.768L156.621 214.58C158.664 213.114 160.612 211.521 162.453 209.808L162.662 209.62C172.373 200.649 189.83 179.9 189.659 146.818C189.623 141.299 189.133 135.793 188.194 130.355ZM148.601 191.171C148.601 191.171 148.601 129.647 150.631 129.659C152.215 129.659 154.266 209.017 154.266 209.017C151.446 208.677 148.601 195.956 148.601 191.171Z" fill="white"/>
</g>
<defs>
<clipPath id="clip0_1047_126">
<rect width="297" height="297" fill="white"/>
</clipPath>
</defs>
</svg>
