<svg width="297" height="297" viewBox="0 0 297 297" fill="none" xmlns="http://www.w3.org/2000/svg">
<g clip-path="url(#clip0_1047_129)">
<path d="M138.774 0.0799238C138.135 0.13798 136.103 0.341176 134.274 0.486316C92.0903 4.28898 52.5774 27.0469 27.5516 62.0257C13.6161 81.4744 4.70323 103.536 1.33548 126.903C0.145161 135.06 0 137.469 0 148.529C0 159.589 0.145161 161.998 1.33548 170.155C9.40645 225.918 49.0935 272.769 102.919 290.128C112.558 293.234 122.719 295.353 134.274 296.63C138.774 297.123 158.226 297.123 162.726 296.63C182.671 294.424 199.568 289.489 216.232 280.984C218.787 279.678 219.281 279.329 218.932 279.039C218.7 278.865 207.813 264.264 194.748 246.615L171 214.539L141.242 170.503C124.868 146.294 111.397 126.497 111.281 126.497C111.165 126.468 111.048 146.033 110.99 169.923C110.903 211.752 110.874 213.436 110.352 214.423C109.597 215.845 109.016 216.426 107.797 217.064C106.868 217.529 106.055 217.616 101.671 217.616H96.6484L95.3129 216.774C94.4419 216.222 93.8032 215.497 93.3677 214.655L92.7581 213.349L92.8161 155.147L92.9032 96.9173L93.8032 95.7852C94.2677 95.1756 95.2548 94.3919 95.9516 94.0145C97.1419 93.4339 97.6065 93.3759 102.629 93.3759C108.552 93.3759 109.539 93.6081 111.077 95.2917C111.513 95.7562 127.626 120.024 146.903 149.255C166.181 178.486 192.542 218.399 205.49 237.993L229.006 273.611L230.197 272.827C240.735 265.976 251.884 256.223 260.71 246.063C279.494 224.495 291.6 198.196 295.665 170.155C296.855 161.998 297 159.589 297 148.529C297 137.469 296.855 135.06 295.665 126.903C287.594 71.1405 247.906 24.2893 194.081 6.93053C184.587 3.85356 174.484 1.73452 163.161 0.457288C160.374 0.167008 141.184 -0.1523 138.774 0.0799238ZM199.568 89.8925C200.961 90.5892 202.094 91.9245 202.5 93.3178C202.732 94.0726 202.79 110.212 202.732 146.584L202.645 198.777L193.442 184.669L184.21 170.561V132.622C184.21 108.093 184.326 94.3048 184.5 93.6371C184.965 92.0116 185.981 90.7343 187.374 89.9796C188.565 89.37 189 89.312 193.558 89.312C197.855 89.312 198.61 89.37 199.568 89.8925Z" fill="black"/>
</g>
<defs>
<clipPath id="clip0_1047_129">
<rect width="297" height="297" fill="white"/>
</clipPath>
</defs>
</svg>
