<svg width="297" height="308" viewBox="0 0 297 308" fill="none" xmlns="http://www.w3.org/2000/svg">
<path d="M148.452 18.0752C137.564 18.1267 127.166 19.071 118.018 20.7174C91.0663 25.5596 86.1729 35.6948 86.1729 54.3858V79.071H149.862V87.2994H86.1729H62.2709C43.761 87.2994 27.5532 98.6138 22.4836 120.138C16.6359 144.809 16.3765 160.204 22.4836 185.965C27.0108 205.14 37.8226 218.803 56.3325 218.803H78.2303V189.211C78.2303 167.832 96.4188 148.975 118.018 148.975H181.633C199.341 148.975 213.477 134.147 213.477 116.061V54.3858C213.477 36.8327 198.916 23.6469 181.633 20.7174C170.692 18.8652 159.34 18.0238 148.452 18.0752ZM114.009 37.9291C120.588 37.9291 125.96 43.4818 125.96 50.3094C125.96 57.1127 120.588 62.6142 114.009 62.6142C107.407 62.6142 102.058 57.1127 102.058 50.3094C102.058 43.4818 107.407 37.9291 114.009 37.9291Z" fill="url(#paint0_linear_1047_132)"/>
<path d="M221.415 87.3008V116.062C221.415 138.361 202.826 157.129 181.628 157.129H118.013C100.587 157.129 86.168 172.296 86.168 190.042V251.718C86.168 269.271 101.177 279.595 118.013 284.631C138.173 290.66 157.506 291.749 181.628 284.631C197.662 279.91 213.472 270.409 213.472 251.718V227.032H149.857V218.804H213.472H245.317C263.827 218.804 270.725 205.674 277.162 185.966C283.811 165.677 283.528 146.166 277.162 120.139C272.587 101.399 263.851 87.3008 245.317 87.3008H221.415ZM185.636 243.489C192.238 243.489 197.587 248.991 197.587 255.794C197.587 262.622 192.238 268.174 185.636 268.174C179.058 268.174 173.685 262.622 173.685 255.794C173.685 248.991 179.058 243.489 185.636 243.489Z" fill="url(#paint1_linear_1047_132)"/>
<defs>
<linearGradient id="paint0_linear_1047_132" x1="18" y1="18.073" x2="166.934" y2="142.868" gradientUnits="userSpaceOnUse">
<stop stop-color="#5A9FD4"/>
<stop offset="1" stop-color="#306998"/>
</linearGradient>
<linearGradient id="paint1_linear_1047_132" x1="184.106" y1="253.719" x2="130.236" y2="179.491" gradientUnits="userSpaceOnUse">
<stop stop-color="#FFD43B"/>
<stop offset="1" stop-color="#FFE873"/>
</linearGradient>
</defs>
</svg>
