<svg width="297" height="270" viewBox="0 0 297 270" fill="none" xmlns="http://www.w3.org/2000/svg">
<g clip-path="url(#clip0_1044_116)">
<path d="M148.499 162.048C163.119 162.048 174.971 149.938 174.971 135C174.971 120.062 163.119 107.952 148.499 107.952C133.879 107.952 122.027 120.062 122.027 135C122.027 149.938 133.879 162.048 148.499 162.048Z" fill="#61DAFB"/>
<path d="M148.495 190.417C226.943 190.417 290.538 165.606 290.538 135.001C290.538 104.395 226.943 79.585 148.495 79.585C70.0462 79.585 6.45117 104.395 6.45117 135.001C6.45117 165.606 70.0462 190.417 148.495 190.417Z" stroke="#61DAFB" stroke-width="9"/>
<path d="M101.52 162.708C140.744 232.126 193.57 275.995 219.51 260.692C245.45 245.389 234.682 176.71 195.457 107.292C156.233 37.8743 103.407 -5.99466 77.4669 9.30799C51.5268 24.6106 62.2957 93.2901 101.52 162.708Z" stroke="#61DAFB" stroke-width="9"/>
<path d="M101.525 107.291C62.301 176.709 51.5321 245.389 77.4722 260.691C103.412 275.994 156.238 232.125 195.463 162.707C234.687 93.2894 245.456 24.6099 219.516 9.30724C193.576 -5.99541 140.749 37.8736 101.525 107.291Z" stroke="#61DAFB" stroke-width="9"/>
</g>
<defs>
<clipPath id="clip0_1044_116">
<rect width="297" height="270" fill="white"/>
</clipPath>
</defs>
</svg>
