<svg width="297" height="297" viewBox="0 0 297 297" fill="none" xmlns="http://www.w3.org/2000/svg">
<g clip-path="url(#clip0_1047_122)">
<path d="M267.996 0H29.0039C12.9855 0 0 12.9855 0 29.0039V267.996C0 284.014 12.9855 297 29.0039 297H267.996C284.014 297 297 284.014 297 267.996V29.0039C297 12.9855 284.014 0 267.996 0Z" fill="#3178C6"/>
<path d="M267.996 0H29.0039C12.9855 0 0 12.9855 0 29.0039V267.996C0 284.014 12.9855 297 29.0039 297H267.996C284.014 297 297 284.014 297 267.996V29.0039C297 12.9855 284.014 0 267.996 0Z" fill="#3178C6"/>
<path fill-rule="evenodd" clip-rule="evenodd" d="M183.849 236.338V265.377C188.57 267.797 194.153 269.612 200.599 270.822C207.045 272.032 213.838 272.637 220.98 272.637C227.941 272.637 234.552 271.971 240.817 270.64C247.081 269.309 252.574 267.116 257.294 264.061C262.015 261.006 265.752 257.013 268.506 252.082C271.26 247.152 272.637 241.057 272.637 233.797C272.637 228.533 271.85 223.921 270.276 219.958C268.703 215.996 266.433 212.472 263.467 209.386C260.502 206.301 256.946 203.533 252.8 201.082C248.655 198.632 243.979 196.318 238.774 194.141C234.961 192.567 231.542 191.04 228.515 189.558C225.489 188.075 222.917 186.563 220.799 185.021C218.68 183.478 217.046 181.844 215.896 180.12C214.747 178.395 214.171 176.445 214.171 174.266C214.171 172.27 214.686 170.47 215.715 168.867C216.744 167.264 218.196 165.888 220.072 164.738C221.949 163.589 224.248 162.696 226.972 162.061C229.696 161.426 232.722 161.109 236.051 161.109C238.471 161.109 241.028 161.29 243.722 161.653C246.415 162.016 249.123 162.576 251.847 163.331C254.571 164.088 257.218 165.041 259.791 166.19C262.363 167.34 264.738 168.67 266.917 170.183V143.05C262.499 141.356 257.672 140.1 252.437 139.284C247.202 138.467 241.195 138.059 234.417 138.059C227.517 138.059 220.98 138.8 214.807 140.282C208.634 141.764 203.202 144.078 198.511 147.224C193.82 150.37 190.114 154.378 187.39 159.248C184.667 164.118 183.305 169.941 183.305 176.717C183.305 185.368 185.801 192.749 190.795 198.859C195.787 204.969 203.368 210.142 213.536 214.377C217.53 216.011 221.253 217.613 224.703 219.187C228.152 220.76 231.133 222.393 233.644 224.087C236.156 225.781 238.138 227.626 239.591 229.623C241.044 231.619 241.77 233.887 241.77 236.429C241.77 238.304 241.316 240.043 240.408 241.647C239.5 243.25 238.123 244.641 236.277 245.821C234.432 247.001 232.132 247.923 229.378 248.588C226.624 249.254 223.401 249.587 219.709 249.587C213.415 249.587 207.181 248.483 201.008 246.274C194.834 244.067 189.115 240.754 183.849 236.338ZM135.031 164.79H172.283V140.959H68.4492V164.79H105.52V270.896H135.031V164.79Z" fill="white"/>
</g>
<defs>
<clipPath id="clip0_1047_122">
<rect width="297" height="297" fill="white"/>
</clipPath>
</defs>
</svg>
